<mxfile host="app.diagrams.net" modified="2024-08-15T02:26:40.763Z" agent="Mozilla/5.0 (Windows NT 10.0; Win64; x64) AppleWebKit/537.36 (KHTML, like Gecko) Chrome/127.0.0.0 Safari/537.36" version="24.2.0" etag="cKtAN4gRjO2TGuL5nFQX" type="github">
  <diagram name="Page-1" id="eAhIM63ef45RC0fdBpTC">
    <mxGraphModel>
      <root>
        <mxCell id="0" />
        <mxCell id="1" parent="0" />
      </root>
    </mxGraphModel>
  </diagram>
</mxfile>
